<svg xmlns="http://www.w3.org/2000/svg" id="export" class="canvas" preserveAspectRatio="xMidYMid meet" style="" width="198" height="944"><rect id="background" fill="#fff" pointer-events="all" width="198" height="944"/><g id="origin" transform="translate(8.98671875, 8.98671875) scale(1)"><g id="clusters" class="clusters"/><g id="edge-paths" class="edge-paths"><defs><marker id="arrowhead" viewBox="0 0 10 10" refX="9" refY="5" markerUnits="strokeWidth" markerWidth="8" markerHeight="6" orient="auto" style="fill: rgb(0, 0, 0);"><path d="M 0 0 L 10 5 L 0 10 L 4 5 z" style="stroke-width: 1;"/></marker><marker id="arrowhead-select" viewBox="0 0 10 10" refX="9" refY="5" markerUnits="strokeWidth" markerWidth="8" markerHeight="6" orient="auto" style="fill: rgb(238, 0, 0);"><path d="M 0 0 L 10 5 L 0 10 L 4 5 z" style="stroke-width: 1;"/></marker><marker id="arrowhead-hover" viewBox="0 0 10 10" refX="9" refY="5" markerUnits="strokeWidth" markerWidth="8" markerHeight="6" orient="auto"><path d="M 0 0 L 10 5 L 0 10 L 4 5 z" style="stroke-width: 1;"/></marker></defs><path id="edge-Input3" class="edge-path" d="M38.8203125,21L38.8203125,22.666666666666668C38.8203125,24.333333333333332,38.8203125,27.666666666666668,38.8203125,32.75C38.8203125,37.833333333333336,38.8203125,44.666666666666664,38.8203125,51.5C38.8203125,58.333333333333336,38.8203125,65.16666666666667,38.8203125,70.25C38.8203125,75.33333333333333,38.8203125,78.66666666666667,38.8203125,80.33333333333333L38.8203125,82" style="stroke: rgb(0, 0, 0); stroke-width: 1px; fill: none; marker-end: url(&quot;#arrowhead&quot;);"/><path class="edge-path-hit-test" d="M38.8203125,21L38.8203125,22.666666666666668C38.8203125,24.333333333333332,38.8203125,27.666666666666668,38.8203125,32.75C38.8203125,37.833333333333336,38.8203125,44.666666666666664,38.8203125,51.5C38.8203125,58.333333333333336,38.8203125,65.16666666666667,38.8203125,70.25C38.8203125,75.33333333333333,38.8203125,78.66666666666667,38.8203125,80.33333333333333L38.8203125,82" style="pointer-events: stroke; stroke-width: 0.5em; fill: none; stroke: rgb(0, 0, 0); stroke-opacity: 0.001;"/><path id="edge-Convolution28_Output_0" class="edge-path" d="M38.8203125,121L38.8203125,124.41666666666667C38.8203125,127.83333333333333,38.8203125,134.66666666666666,38.8203125,141.5C38.8203125,148.33333333333334,38.8203125,155.16666666666666,38.8203125,158.58333333333334L38.8203125,162" style="stroke: rgb(0, 0, 0); stroke-width: 1px; fill: none; marker-end: url(&quot;#arrowhead&quot;);"/><path class="edge-path-hit-test" d="M38.8203125,121L38.8203125,124.41666666666667C38.8203125,127.83333333333333,38.8203125,134.66666666666666,38.8203125,141.5C38.8203125,148.33333333333334,38.8203125,155.16666666666666,38.8203125,158.58333333333334L38.8203125,162" style="pointer-events: stroke; stroke-width: 0.5em; fill: none; stroke: rgb(0, 0, 0); stroke-opacity: 0.001;"/><path id="edge-Plus30_Output_0" class="edge-path" d="M38.8203125,201L38.8203125,204.41666666666666C38.8203125,207.83333333333334,38.8203125,214.66666666666666,38.8203125,221.5C38.8203125,228.33333333333334,38.8203125,235.16666666666666,38.8203125,238.58333333333334L38.8203125,242" style="stroke: rgb(0, 0, 0); stroke-width: 1px; fill: none; marker-end: url(&quot;#arrowhead&quot;);"/><path class="edge-path-hit-test" d="M38.8203125,201L38.8203125,204.41666666666666C38.8203125,207.83333333333334,38.8203125,214.66666666666666,38.8203125,221.5C38.8203125,228.33333333333334,38.8203125,235.16666666666666,38.8203125,238.58333333333334L38.8203125,242" style="pointer-events: stroke; stroke-width: 0.5em; fill: none; stroke: rgb(0, 0, 0); stroke-opacity: 0.001;"/><path id="edge-ReLU32_Output_0" class="edge-path" d="M38.8203125,263L38.8203125,266.4166666666667C38.8203125,269.8333333333333,38.8203125,276.6666666666667,38.8203125,283.5C38.8203125,290.3333333333333,38.8203125,297.1666666666667,38.8203125,300.5833333333333L38.8203125,304" style="stroke: rgb(0, 0, 0); stroke-width: 1px; fill: none; marker-end: url(&quot;#arrowhead&quot;);"/><path class="edge-path-hit-test" d="M38.8203125,263L38.8203125,266.4166666666667C38.8203125,269.8333333333333,38.8203125,276.6666666666667,38.8203125,283.5C38.8203125,290.3333333333333,38.8203125,297.1666666666667,38.8203125,300.5833333333333L38.8203125,304" style="pointer-events: stroke; stroke-width: 0.5em; fill: none; stroke: rgb(0, 0, 0); stroke-opacity: 0.001;"/><path id="edge-Pooling66_Output_0" class="edge-path" d="M38.8203125,325L38.8203125,328.4166666666667C38.8203125,331.8333333333333,38.8203125,338.6666666666667,38.8203125,345.5C38.8203125,352.3333333333333,38.8203125,359.1666666666667,38.8203125,362.5833333333333L38.8203125,366" style="stroke: rgb(0, 0, 0); stroke-width: 1px; fill: none; marker-end: url(&quot;#arrowhead&quot;);"/><path class="edge-path-hit-test" d="M38.8203125,325L38.8203125,328.4166666666667C38.8203125,331.8333333333333,38.8203125,338.6666666666667,38.8203125,345.5C38.8203125,352.3333333333333,38.8203125,359.1666666666667,38.8203125,362.5833333333333L38.8203125,366" style="pointer-events: stroke; stroke-width: 0.5em; fill: none; stroke: rgb(0, 0, 0); stroke-opacity: 0.001;"/><path id="edge-Convolution110_Output_0" class="edge-path" d="M38.8203125,405L38.8203125,408.4166666666667C38.8203125,411.8333333333333,38.8203125,418.6666666666667,38.8203125,425.5C38.8203125,432.3333333333333,38.8203125,439.1666666666667,38.8203125,442.5833333333333L38.8203125,446" style="stroke: rgb(0, 0, 0); stroke-width: 1px; fill: none; marker-end: url(&quot;#arrowhead&quot;);"/><path class="edge-path-hit-test" d="M38.8203125,405L38.8203125,408.4166666666667C38.8203125,411.8333333333333,38.8203125,418.6666666666667,38.8203125,425.5C38.8203125,432.3333333333333,38.8203125,439.1666666666667,38.8203125,442.5833333333333L38.8203125,446" style="pointer-events: stroke; stroke-width: 0.5em; fill: none; stroke: rgb(0, 0, 0); stroke-opacity: 0.001;"/><path id="edge-Plus112_Output_0" class="edge-path" d="M38.8203125,485L38.8203125,488.4166666666667C38.8203125,491.8333333333333,38.8203125,498.6666666666667,38.8203125,505.5C38.8203125,512.3333333333334,38.8203125,519.1666666666666,38.8203125,522.5833333333334L38.8203125,526" style="stroke: rgb(0, 0, 0); stroke-width: 1px; fill: none; marker-end: url(&quot;#arrowhead&quot;);"/><path class="edge-path-hit-test" d="M38.8203125,485L38.8203125,488.4166666666667C38.8203125,491.8333333333333,38.8203125,498.6666666666667,38.8203125,505.5C38.8203125,512.3333333333334,38.8203125,519.1666666666666,38.8203125,522.5833333333334L38.8203125,526" style="pointer-events: stroke; stroke-width: 0.5em; fill: none; stroke: rgb(0, 0, 0); stroke-opacity: 0.001;"/><path id="edge-ReLU114_Output_0" class="edge-path" d="M38.8203125,547L38.8203125,550.4166666666666C38.8203125,553.8333333333334,38.8203125,560.6666666666666,38.8203125,570.1666666666666C38.8203125,579.6666666666666,38.8203125,591.8333333333334,38.8203125,597.9166666666666L38.8203125,604" style="stroke: rgb(0, 0, 0); stroke-width: 1px; fill: none; marker-end: url(&quot;#arrowhead&quot;);"/><path class="edge-path-hit-test" d="M38.8203125,547L38.8203125,550.4166666666666C38.8203125,553.8333333333334,38.8203125,560.6666666666666,38.8203125,570.1666666666666C38.8203125,579.6666666666666,38.8203125,591.8333333333334,38.8203125,597.9166666666666L38.8203125,604" style="pointer-events: stroke; stroke-width: 0.5em; fill: none; stroke: rgb(0, 0, 0); stroke-opacity: 0.001;"/><path id="edge-Pooling160_Output_0" class="edge-path" d="M38.8203125,625L38.8203125,631.0833333333334C38.8203125,637.1666666666666,38.8203125,649.3333333333334,38.8203125,658.8333333333334C38.8203125,668.3333333333334,38.8203125,675.1666666666666,38.8203125,678.5833333333334L38.8203125,682" style="stroke: rgb(0, 0, 0); stroke-width: 1px; fill: none; marker-end: url(&quot;#arrowhead&quot;);"/><path class="edge-path-hit-test" d="M38.8203125,625L38.8203125,631.0833333333334C38.8203125,637.1666666666666,38.8203125,649.3333333333334,38.8203125,658.8333333333334C38.8203125,668.3333333333334,38.8203125,675.1666666666666,38.8203125,678.5833333333334L38.8203125,682" style="pointer-events: stroke; stroke-width: 0.5em; fill: none; stroke: rgb(0, 0, 0); stroke-opacity: 0.001;"/><path id="edge-Pooling160_Output_0_reshape0" class="edge-path" d="M38.8203125,722L38.8203125,725.4166666666666C38.8203125,728.8333333333334,38.8203125,735.6666666666666,44.03658434139785,742.5C49.2528561827957,749.3333333333334,59.6853998655914,756.1666666666666,64.90167170698925,759.5833333333334L70.1179435483871,763" style="stroke: rgb(0, 0, 0); stroke-width: 1px; fill: none; marker-end: url(&quot;#arrowhead&quot;);"/><path class="edge-path-hit-test" d="M38.8203125,722L38.8203125,725.4166666666666C38.8203125,728.8333333333334,38.8203125,735.6666666666666,44.03658434139785,742.5C49.2528561827957,749.3333333333334,59.6853998655914,756.1666666666666,64.90167170698925,759.5833333333334L70.1179435483871,763" style="pointer-events: stroke; stroke-width: 0.5em; fill: none; stroke: rgb(0, 0, 0); stroke-opacity: 0.001;"/><path id="edge-Parameter193_reshape1" class="edge-path" d="M133.4765625,641L133.4765625,644.4166666666666C133.4765625,647.8333333333334,133.4765625,654.6666666666666,133.4765625,664.8333333333334C133.4765625,675,133.4765625,688.5,133.4765625,702C133.4765625,715.5,133.4765625,729,128.26029065860214,739.1666666666666C123.0440188172043,749.3333333333334,112.6114751344086,756.1666666666666,107.39520329301075,759.5833333333334L102.1789314516129,763" style="stroke: rgb(0, 0, 0); stroke-width: 1px; fill: none; marker-end: url(&quot;#arrowhead&quot;);"/><path class="edge-path-hit-test" d="M133.4765625,641L133.4765625,644.4166666666666C133.4765625,647.8333333333334,133.4765625,654.6666666666666,133.4765625,664.8333333333334C133.4765625,675,133.4765625,688.5,133.4765625,702C133.4765625,715.5,133.4765625,729,128.26029065860214,739.1666666666666C123.0440188172043,749.3333333333334,112.6114751344086,756.1666666666666,107.39520329301075,759.5833333333334L102.1789314516129,763" style="pointer-events: stroke; stroke-width: 0.5em; fill: none; stroke: rgb(0, 0, 0); stroke-opacity: 0.001;"/><path id="edge-Times212_Output_0" class="edge-path" d="M86.1484375,784L86.1484375,787.4166666666666C86.1484375,790.8333333333334,86.1484375,797.6666666666666,86.1484375,804.5C86.1484375,811.3333333333334,86.1484375,818.1666666666666,86.1484375,821.5833333333334L86.1484375,825" style="stroke: rgb(0, 0, 0); stroke-width: 1px; fill: none; marker-end: url(&quot;#arrowhead&quot;);"/><path class="edge-path-hit-test" d="M86.1484375,784L86.1484375,787.4166666666666C86.1484375,790.8333333333334,86.1484375,797.6666666666666,86.1484375,804.5C86.1484375,811.3333333333334,86.1484375,818.1666666666666,86.1484375,821.5833333333334L86.1484375,825" style="pointer-events: stroke; stroke-width: 0.5em; fill: none; stroke: rgb(0, 0, 0); stroke-opacity: 0.001;"/><path id="edge-Plus214_Output_0" class="edge-path" d="M86.1484375,864L86.1484375,867.4166666666666C86.1484375,870.8333333333334,86.1484375,877.6666666666666,86.1484375,884.5C86.1484375,891.3333333333334,86.1484375,898.1666666666666,86.1484375,901.5833333333334L86.1484375,905" style="stroke: rgb(0, 0, 0); stroke-width: 1px; fill: none; marker-end: url(&quot;#arrowhead&quot;);"/><path class="edge-path-hit-test" d="M86.1484375,864L86.1484375,867.4166666666666C86.1484375,870.8333333333334,86.1484375,877.6666666666666,86.1484375,884.5C86.1484375,891.3333333333334,86.1484375,898.1666666666666,86.1484375,901.5833333333334L86.1484375,905" style="pointer-events: stroke; stroke-width: 0.5em; fill: none; stroke: rgb(0, 0, 0); stroke-opacity: 0.001;"/></g><g id="edge-labels" class="edge-labels"><text class="edge-label" id="edge-label-edge-Input3" transform="translate(43.8203125,46)" style="opacity: 1; font-family: -apple-system, BlinkMacSystemFont, &quot;Segoe WPC&quot;, &quot;Segoe UI&quot;, Ubuntu, &quot;Droid Sans&quot;, sans-serif, &quot;PingFang SC&quot;; font-size: 10px;"><tspan xml:space="preserve" dy="1em" x="1">1×1×28×28</tspan></text><text class="edge-label" id="edge-label-edge-Convolution28_Output_0" transform="translate(43.8203125,136)" style="opacity: 1; font-family: -apple-system, BlinkMacSystemFont, &quot;Segoe WPC&quot;, &quot;Segoe UI&quot;, Ubuntu, &quot;Droid Sans&quot;, sans-serif, &quot;PingFang SC&quot;; font-size: 10px;"><tspan xml:space="preserve" dy="1em" x="1">1×8×28×28</tspan></text><text class="edge-label" id="edge-label-edge-Plus30_Output_0" transform="translate(43.8203125,216)" style="opacity: 1; font-family: -apple-system, BlinkMacSystemFont, &quot;Segoe WPC&quot;, &quot;Segoe UI&quot;, Ubuntu, &quot;Droid Sans&quot;, sans-serif, &quot;PingFang SC&quot;; font-size: 10px;"><tspan xml:space="preserve" dy="1em" x="1">1×8×28×28</tspan></text><text class="edge-label" id="edge-label-edge-ReLU32_Output_0" transform="translate(43.8203125,278)" style="opacity: 1; font-family: -apple-system, BlinkMacSystemFont, &quot;Segoe WPC&quot;, &quot;Segoe UI&quot;, Ubuntu, &quot;Droid Sans&quot;, sans-serif, &quot;PingFang SC&quot;; font-size: 10px;"><tspan xml:space="preserve" dy="1em" x="1">1×8×28×28</tspan></text><text class="edge-label" id="edge-label-edge-Pooling66_Output_0" transform="translate(43.8203125,340)" style="opacity: 1; font-family: -apple-system, BlinkMacSystemFont, &quot;Segoe WPC&quot;, &quot;Segoe UI&quot;, Ubuntu, &quot;Droid Sans&quot;, sans-serif, &quot;PingFang SC&quot;; font-size: 10px;"><tspan xml:space="preserve" dy="1em" x="1">1×8×14×14</tspan></text><text class="edge-label" id="edge-label-edge-Convolution110_Output_0" transform="translate(43.8203125,420)" style="opacity: 1; font-family: -apple-system, BlinkMacSystemFont, &quot;Segoe WPC&quot;, &quot;Segoe UI&quot;, Ubuntu, &quot;Droid Sans&quot;, sans-serif, &quot;PingFang SC&quot;; font-size: 10px;"><tspan xml:space="preserve" dy="1em" x="1">1×16×14×14</tspan></text><text class="edge-label" id="edge-label-edge-Plus112_Output_0" transform="translate(43.8203125,500)" style="opacity: 1; font-family: -apple-system, BlinkMacSystemFont, &quot;Segoe WPC&quot;, &quot;Segoe UI&quot;, Ubuntu, &quot;Droid Sans&quot;, sans-serif, &quot;PingFang SC&quot;; font-size: 10px;"><tspan xml:space="preserve" dy="1em" x="1">1×16×14×14</tspan></text><text class="edge-label" id="edge-label-edge-ReLU114_Output_0" transform="translate(43.8203125,562)" style="opacity: 1; font-family: -apple-system, BlinkMacSystemFont, &quot;Segoe WPC&quot;, &quot;Segoe UI&quot;, Ubuntu, &quot;Droid Sans&quot;, sans-serif, &quot;PingFang SC&quot;; font-size: 10px;"><tspan xml:space="preserve" dy="1em" x="1">1×16×14×14</tspan></text><text class="edge-label" id="edge-label-edge-Pooling160_Output_0" transform="translate(43.8203125,656)" style="opacity: 1; font-family: -apple-system, BlinkMacSystemFont, &quot;Segoe WPC&quot;, &quot;Segoe UI&quot;, Ubuntu, &quot;Droid Sans&quot;, sans-serif, &quot;PingFang SC&quot;; font-size: 10px;"><tspan xml:space="preserve" dy="1em" x="1">1×16×4×4</tspan></text><text class="edge-label" id="edge-label-edge-Pooling160_Output_0_reshape0" transform="translate(43.8203125,737)" style="opacity: 1; font-family: -apple-system, BlinkMacSystemFont, &quot;Segoe WPC&quot;, &quot;Segoe UI&quot;, Ubuntu, &quot;Droid Sans&quot;, sans-serif, &quot;PingFang SC&quot;; font-size: 10px;"><tspan xml:space="preserve" dy="1em" x="1">1×256</tspan></text><text class="edge-label" id="edge-label-edge-Parameter193_reshape1" transform="translate(138.4765625,696.5)" style="opacity: 1; font-family: -apple-system, BlinkMacSystemFont, &quot;Segoe WPC&quot;, &quot;Segoe UI&quot;, Ubuntu, &quot;Droid Sans&quot;, sans-serif, &quot;PingFang SC&quot;; font-size: 10px;"><tspan xml:space="preserve" dy="1em" x="1">256×10</tspan></text><text class="edge-label" id="edge-label-edge-Times212_Output_0" transform="translate(91.1484375,799)" style="opacity: 1; font-family: -apple-system, BlinkMacSystemFont, &quot;Segoe WPC&quot;, &quot;Segoe UI&quot;, Ubuntu, &quot;Droid Sans&quot;, sans-serif, &quot;PingFang SC&quot;; font-size: 10px;"><tspan xml:space="preserve" dy="1em" x="1">1×10</tspan></text><text class="edge-label" id="edge-label-edge-Plus214_Output_0" transform="translate(91.1484375,879)" style="opacity: 1; font-family: -apple-system, BlinkMacSystemFont, &quot;Segoe WPC&quot;, &quot;Segoe UI&quot;, Ubuntu, &quot;Droid Sans&quot;, sans-serif, &quot;PingFang SC&quot;; font-size: 10px;"><tspan xml:space="preserve" dy="1em" x="1">1×10</tspan></text></g><g id="nodes" class="nodes"><g id="input-name-Input3" class="node graph-input" transform="translate(15.359375,0)" style="opacity: 1;"><g class="node-item graph-item-input" transform="translate(0,0)"><path d="M5,0h36.921875a5,5 0 0 1 5,5v11a5,5 0 0 1 -5,5h-36.921875a5,5 0 0 1 -5,-5v-11a5,5 0 0 1 5,-5z" style="stroke: rgb(0, 0, 0); fill: rgb(238, 238, 238); stroke-width: 0;"/><text x="6" y="14" style="font-family: -apple-system, BlinkMacSystemFont, &quot;Segoe WPC&quot;, &quot;Segoe UI&quot;, Ubuntu, &quot;Droid Sans&quot;, sans-serif, &quot;PingFang SC&quot;; font-size: 11px; text-rendering: geometricprecision;">Input3</text><title>float32[1,1,28,28]</title></g><path class="node border" d="M5,0h36.921875a5,5 0 0 1 5,5v11a5,5 0 0 1 -5,5h-36.921875a5,5 0 0 1 -5,-5v-11a5,5 0 0 1 5,-5z" style="stroke: rgb(51, 51, 51); fill: none; stroke-width: 1px;"/></g><g id="node-name-Convolution28" class="node graph-node" transform="translate(1.3203125,82)" style="opacity: 1;"><g class="node-item node-item-type node-item-type-layer" transform="translate(0,0)"><path d="M5,0h65a5,5 0 0 1 5,5v16a0,0 0 0 1 0,0h-75a0,0 0 0 1 0,0v-16a5,5 0 0 1 5,-5z" style="stroke: rgb(0, 0, 0); fill: rgb(51, 85, 136); stroke-width: 0;"/><text x="6" y="14" style="font-family: -apple-system, BlinkMacSystemFont, &quot;Segoe WPC&quot;, &quot;Segoe UI&quot;, Ubuntu, &quot;Droid Sans&quot;, sans-serif, &quot;PingFang SC&quot;; font-size: 11px; text-rendering: geometricprecision; fill: rgb(255, 255, 255);">Conv</text><title>Convolution28</title></g><g class="node-attribute" transform="translate(0,21)"><path d="M0,0h75a0,0 0 0 1 0,0v13a5,5 0 0 1 -5,5h-65a5,5 0 0 1 -5,-5v-13a0,0 0 0 1 0,0z" style="stroke: rgb(0, 0, 0); fill: rgb(255, 255, 255); stroke-width: 0;"/><text id="initializer-Parameter5" xml:space="preserve" x="6" y="11" style="font-family: -apple-system, BlinkMacSystemFont, &quot;Segoe WPC&quot;, &quot;Segoe UI&quot;, Ubuntu, &quot;Droid Sans&quot;, sans-serif, &quot;PingFang SC&quot;; font-size: 9px; font-weight: normal; text-rendering: geometricprecision;"><title>float32[8,1,5,5]</title><tspan style="font-weight: bold;">W</tspan><tspan>〈8×1×5×5〉</tspan></text><line class="node" x1="0" x2="75" y1="0" y2="0" style="stroke: rgb(51, 51, 51); fill: none; stroke-width: 1px;"/></g><path class="node border" d="M5,0h65a5,5 0 0 1 5,5v29a5,5 0 0 1 -5,5h-65a5,5 0 0 1 -5,-5v-29a5,5 0 0 1 5,-5z" style="stroke: rgb(51, 51, 51); fill: none; stroke-width: 1px;"/></g><g id="node-name-Plus30" class="node graph-node" transform="translate(1.3203125,162)" style="opacity: 1;"><g class="node-item node-item-type" transform="translate(0,0)"><path d="M5,0h65a5,5 0 0 1 5,5v16a0,0 0 0 1 0,0h-75a0,0 0 0 1 0,0v-16a5,5 0 0 1 5,-5z" style="stroke: rgb(0, 0, 0); fill: rgb(0, 0, 0); stroke-width: 0;"/><text x="6" y="14" style="font-family: -apple-system, BlinkMacSystemFont, &quot;Segoe WPC&quot;, &quot;Segoe UI&quot;, Ubuntu, &quot;Droid Sans&quot;, sans-serif, &quot;PingFang SC&quot;; font-size: 11px; text-rendering: geometricprecision; fill: rgb(255, 255, 255);">Add</text><title>Plus30</title></g><g class="node-attribute" transform="translate(0,21)"><path d="M0,0h75a0,0 0 0 1 0,0v13a5,5 0 0 1 -5,5h-65a5,5 0 0 1 -5,-5v-13a0,0 0 0 1 0,0z" style="stroke: rgb(0, 0, 0); fill: rgb(255, 255, 255); stroke-width: 0;"/><text id="initializer-Parameter6" xml:space="preserve" x="6" y="11" style="font-family: -apple-system, BlinkMacSystemFont, &quot;Segoe WPC&quot;, &quot;Segoe UI&quot;, Ubuntu, &quot;Droid Sans&quot;, sans-serif, &quot;PingFang SC&quot;; font-size: 9px; font-weight: normal; text-rendering: geometricprecision;"><title>float32[8,1,1]</title><tspan style="font-weight: bold;">B</tspan><tspan>〈8×1×1〉</tspan></text><line class="node" x1="0" x2="75" y1="0" y2="0" style="stroke: rgb(51, 51, 51); fill: none; stroke-width: 1px;"/></g><path class="node border" d="M5,0h65a5,5 0 0 1 5,5v29a5,5 0 0 1 -5,5h-65a5,5 0 0 1 -5,-5v-29a5,5 0 0 1 5,-5z" style="stroke: rgb(51, 51, 51); fill: none; stroke-width: 1px;"/></g><g id="node-name-ReLU32" class="node graph-node" transform="translate(20.96875,242)" style="opacity: 1;"><g class="node-item node-item-type node-item-type-activation" transform="translate(0,0)"><path d="M5,0h25.703125a5,5 0 0 1 5,5v11a5,5 0 0 1 -5,5h-25.703125a5,5 0 0 1 -5,-5v-11a5,5 0 0 1 5,-5z" style="stroke: rgb(0, 0, 0); fill: rgb(112, 41, 33); stroke-width: 0;"/><text x="6" y="14" style="font-family: -apple-system, BlinkMacSystemFont, &quot;Segoe WPC&quot;, &quot;Segoe UI&quot;, Ubuntu, &quot;Droid Sans&quot;, sans-serif, &quot;PingFang SC&quot;; font-size: 11px; text-rendering: geometricprecision; fill: rgb(255, 255, 255);">Relu</text><title>ReLU32</title></g><path class="node border" d="M5,0h25.703125a5,5 0 0 1 5,5v11a5,5 0 0 1 -5,5h-25.703125a5,5 0 0 1 -5,-5v-11a5,5 0 0 1 5,-5z" style="stroke: rgb(51, 51, 51); fill: none; stroke-width: 1px;"/></g><g id="node-name-Pooling66" class="node graph-node" transform="translate(10.421875,304)" style="opacity: 1;"><g class="node-item node-item-type node-item-type-pool" transform="translate(0,0)"><path d="M5,0h46.796875a5,5 0 0 1 5,5v11a5,5 0 0 1 -5,5h-46.796875a5,5 0 0 1 -5,-5v-11a5,5 0 0 1 5,-5z" style="stroke: rgb(0, 0, 0); fill: rgb(51, 85, 51); stroke-width: 0;"/><text x="6" y="14" style="font-family: -apple-system, BlinkMacSystemFont, &quot;Segoe WPC&quot;, &quot;Segoe UI&quot;, Ubuntu, &quot;Droid Sans&quot;, sans-serif, &quot;PingFang SC&quot;; font-size: 11px; text-rendering: geometricprecision; fill: rgb(255, 255, 255);">MaxPool</text><title>Pooling66</title></g><path class="node border" d="M5,0h46.796875a5,5 0 0 1 5,5v11a5,5 0 0 1 -5,5h-46.796875a5,5 0 0 1 -5,-5v-11a5,5 0 0 1 5,-5z" style="stroke: rgb(51, 51, 51); fill: none; stroke-width: 1px;"/></g><g id="node-name-Convolution110" class="node graph-node" transform="translate(0,366)" style="opacity: 1;"><g class="node-item node-item-type node-item-type-layer" transform="translate(0,0)"><path d="M5,0h67.640625a5,5 0 0 1 5,5v16a0,0 0 0 1 0,0h-77.640625a0,0 0 0 1 0,0v-16a5,5 0 0 1 5,-5z" style="stroke: rgb(0, 0, 0); fill: rgb(51, 85, 136); stroke-width: 0;"/><text x="6" y="14" style="font-family: -apple-system, BlinkMacSystemFont, &quot;Segoe WPC&quot;, &quot;Segoe UI&quot;, Ubuntu, &quot;Droid Sans&quot;, sans-serif, &quot;PingFang SC&quot;; font-size: 11px; text-rendering: geometricprecision; fill: rgb(255, 255, 255);">Conv</text><title>Convolution110</title></g><g class="node-attribute" transform="translate(0,21)"><path d="M0,0h77.640625a0,0 0 0 1 0,0v13a5,5 0 0 1 -5,5h-67.640625a5,5 0 0 1 -5,-5v-13a0,0 0 0 1 0,0z" style="stroke: rgb(0, 0, 0); fill: rgb(255, 255, 255); stroke-width: 0;"/><text id="initializer-Parameter87" xml:space="preserve" x="6" y="11" style="font-family: -apple-system, BlinkMacSystemFont, &quot;Segoe WPC&quot;, &quot;Segoe UI&quot;, Ubuntu, &quot;Droid Sans&quot;, sans-serif, &quot;PingFang SC&quot;; font-size: 9px; font-weight: normal; text-rendering: geometricprecision;"><title>float32[16,8,5,5]</title><tspan style="font-weight: bold;">W</tspan><tspan>〈16×8×5×5〉</tspan></text><line class="node" x1="0" x2="77.640625" y1="0" y2="0" style="stroke: rgb(51, 51, 51); fill: none; stroke-width: 1px;"/></g><path class="node border" d="M5,0h67.640625a5,5 0 0 1 5,5v29a5,5 0 0 1 -5,5h-67.640625a5,5 0 0 1 -5,-5v-29a5,5 0 0 1 5,-5z" style="stroke: rgb(51, 51, 51); fill: none; stroke-width: 1px;"/></g><g id="node-name-Plus112" class="node graph-node" transform="translate(1.3203125,446)" style="opacity: 1;"><g class="node-item node-item-type" transform="translate(0,0)"><path d="M5,0h65a5,5 0 0 1 5,5v16a0,0 0 0 1 0,0h-75a0,0 0 0 1 0,0v-16a5,5 0 0 1 5,-5z" style="stroke: rgb(0, 0, 0); fill: rgb(0, 0, 0); stroke-width: 0;"/><text x="6" y="14" style="font-family: -apple-system, BlinkMacSystemFont, &quot;Segoe WPC&quot;, &quot;Segoe UI&quot;, Ubuntu, &quot;Droid Sans&quot;, sans-serif, &quot;PingFang SC&quot;; font-size: 11px; text-rendering: geometricprecision; fill: rgb(255, 255, 255);">Add</text><title>Plus112</title></g><g class="node-attribute" transform="translate(0,21)"><path d="M0,0h75a0,0 0 0 1 0,0v13a5,5 0 0 1 -5,5h-65a5,5 0 0 1 -5,-5v-13a0,0 0 0 1 0,0z" style="stroke: rgb(0, 0, 0); fill: rgb(255, 255, 255); stroke-width: 0;"/><text id="initializer-Parameter88" xml:space="preserve" x="6" y="11" style="font-family: -apple-system, BlinkMacSystemFont, &quot;Segoe WPC&quot;, &quot;Segoe UI&quot;, Ubuntu, &quot;Droid Sans&quot;, sans-serif, &quot;PingFang SC&quot;; font-size: 9px; font-weight: normal; text-rendering: geometricprecision;"><title>float32[16,1,1]</title><tspan style="font-weight: bold;">B</tspan><tspan>〈16×1×1〉</tspan></text><line class="node" x1="0" x2="75" y1="0" y2="0" style="stroke: rgb(51, 51, 51); fill: none; stroke-width: 1px;"/></g><path class="node border" d="M5,0h65a5,5 0 0 1 5,5v29a5,5 0 0 1 -5,5h-65a5,5 0 0 1 -5,-5v-29a5,5 0 0 1 5,-5z" style="stroke: rgb(51, 51, 51); fill: none; stroke-width: 1px;"/></g><g id="node-name-ReLU114" class="node graph-node" transform="translate(20.96875,526)" style="opacity: 1;"><g class="node-item node-item-type node-item-type-activation" transform="translate(0,0)"><path d="M5,0h25.703125a5,5 0 0 1 5,5v11a5,5 0 0 1 -5,5h-25.703125a5,5 0 0 1 -5,-5v-11a5,5 0 0 1 5,-5z" style="stroke: rgb(0, 0, 0); fill: rgb(112, 41, 33); stroke-width: 0;"/><text x="6" y="14" style="font-family: -apple-system, BlinkMacSystemFont, &quot;Segoe WPC&quot;, &quot;Segoe UI&quot;, Ubuntu, &quot;Droid Sans&quot;, sans-serif, &quot;PingFang SC&quot;; font-size: 11px; text-rendering: geometricprecision; fill: rgb(255, 255, 255);">Relu</text><title>ReLU114</title></g><path class="node border" d="M5,0h25.703125a5,5 0 0 1 5,5v11a5,5 0 0 1 -5,5h-25.703125a5,5 0 0 1 -5,-5v-11a5,5 0 0 1 5,-5z" style="stroke: rgb(51, 51, 51); fill: none; stroke-width: 1px;"/></g><g id="node-name-Pooling160" class="node graph-node" transform="translate(10.421875,604)" style="opacity: 1;"><g class="node-item node-item-type node-item-type-pool" transform="translate(0,0)"><path d="M5,0h46.796875a5,5 0 0 1 5,5v11a5,5 0 0 1 -5,5h-46.796875a5,5 0 0 1 -5,-5v-11a5,5 0 0 1 5,-5z" style="stroke: rgb(0, 0, 0); fill: rgb(51, 85, 51); stroke-width: 0;"/><text x="6" y="14" style="font-family: -apple-system, BlinkMacSystemFont, &quot;Segoe WPC&quot;, &quot;Segoe UI&quot;, Ubuntu, &quot;Droid Sans&quot;, sans-serif, &quot;PingFang SC&quot;; font-size: 11px; text-rendering: geometricprecision; fill: rgb(255, 255, 255);">MaxPool</text><title>Pooling160</title></g><path class="node border" d="M5,0h46.796875a5,5 0 0 1 5,5v11a5,5 0 0 1 -5,5h-46.796875a5,5 0 0 1 -5,-5v-11a5,5 0 0 1 5,-5z" style="stroke: rgb(51, 51, 51); fill: none; stroke-width: 1px;"/></g><g id="node-name-Times212_reshape0" class="node graph-node" transform="translate(1.3203125,682)" style="opacity: 1;"><g class="node-item node-item-type node-item-type-shape" transform="translate(0,0)"><path d="M5,0h65a5,5 0 0 1 5,5v16a0,0 0 0 1 0,0h-75a0,0 0 0 1 0,0v-16a5,5 0 0 1 5,-5z" style="stroke: rgb(0, 0, 0); fill: rgb(108, 79, 71); stroke-width: 0;"/><text x="6" y="14" style="font-family: -apple-system, BlinkMacSystemFont, &quot;Segoe WPC&quot;, &quot;Segoe UI&quot;, Ubuntu, &quot;Droid Sans&quot;, sans-serif, &quot;PingFang SC&quot;; font-size: 11px; text-rendering: geometricprecision; fill: rgb(255, 255, 255);">Reshape</text><title>Times212_reshape0</title></g><g class="node-attribute" transform="translate(0,21)"><path d="M0,0h75a0,0 0 0 1 0,0v14a5,5 0 0 1 -5,5h-65a5,5 0 0 1 -5,-5v-14a0,0 0 0 1 0,0z" style="stroke: rgb(0, 0, 0); fill: rgb(255, 255, 255); stroke-width: 0;"/><text id="initializer-Pooling160_Output_0_reshape0_shape" xml:space="preserve" x="6" y="12" style="font-family: -apple-system, BlinkMacSystemFont, &quot;Segoe WPC&quot;, &quot;Segoe UI&quot;, Ubuntu, &quot;Droid Sans&quot;, sans-serif, &quot;PingFang SC&quot;; font-size: 9px; font-weight: normal; text-rendering: geometricprecision;"><title>int64[2]</title><tspan style="font-weight: bold;">shape</tspan><tspan>〈2〉</tspan></text><line class="node" x1="0" x2="75" y1="0" y2="0" style="stroke: rgb(51, 51, 51); fill: none; stroke-width: 1px;"/></g><path class="node border" d="M5,0h65a5,5 0 0 1 5,5v30a5,5 0 0 1 -5,5h-65a5,5 0 0 1 -5,-5v-30a5,5 0 0 1 5,-5z" style="stroke: rgb(51, 51, 51); fill: none; stroke-width: 1px;"/></g><g id="node-name-Times212_reshape1" class="node graph-node" transform="translate(87.21875,588)" style="opacity: 1;"><g class="node-item node-item-type node-item-type-shape" transform="translate(0,0)"><path d="M5,0h82.515625a5,5 0 0 1 5,5v16a0,0 0 0 1 0,0h-92.515625a0,0 0 0 1 0,0v-16a5,5 0 0 1 5,-5z" style="stroke: rgb(0, 0, 0); fill: rgb(108, 79, 71); stroke-width: 0;"/><text x="6" y="14" style="font-family: -apple-system, BlinkMacSystemFont, &quot;Segoe WPC&quot;, &quot;Segoe UI&quot;, Ubuntu, &quot;Droid Sans&quot;, sans-serif, &quot;PingFang SC&quot;; font-size: 11px; text-rendering: geometricprecision; fill: rgb(255, 255, 255);">Reshape</text><title>Times212_reshape1</title></g><g class="node-attribute" transform="translate(0,21)"><path d="M0,0h92.515625a0,0 0 0 1 0,0v27a5,5 0 0 1 -5,5h-82.515625a5,5 0 0 1 -5,-5v-27a0,0 0 0 1 0,0z" style="stroke: rgb(0, 0, 0); fill: rgb(255, 255, 255); stroke-width: 0;"/><text id="initializer-Parameter193" xml:space="preserve" x="6" y="12" style="font-family: -apple-system, BlinkMacSystemFont, &quot;Segoe WPC&quot;, &quot;Segoe UI&quot;, Ubuntu, &quot;Droid Sans&quot;, sans-serif, &quot;PingFang SC&quot;; font-size: 9px; font-weight: normal; text-rendering: geometricprecision;"><title>float32[16,4,4,10]</title><tspan style="font-weight: bold;">data</tspan><tspan>〈16×4×4×10〉</tspan></text><text id="initializer-Parameter193_reshape1_shape" xml:space="preserve" x="6" y="25" style="font-family: -apple-system, BlinkMacSystemFont, &quot;Segoe WPC&quot;, &quot;Segoe UI&quot;, Ubuntu, &quot;Droid Sans&quot;, sans-serif, &quot;PingFang SC&quot;; font-size: 9px; font-weight: normal; text-rendering: geometricprecision;"><title>int64[2]</title><tspan style="font-weight: bold;">shape</tspan><tspan>〈2〉</tspan></text><line class="node" x1="0" x2="92.515625" y1="0" y2="0" style="stroke: rgb(51, 51, 51); fill: none; stroke-width: 1px;"/></g><path class="node border" d="M5,0h82.515625a5,5 0 0 1 5,5v43a5,5 0 0 1 -5,5h-82.515625a5,5 0 0 1 -5,-5v-43a5,5 0 0 1 5,-5z" style="stroke: rgb(51, 51, 51); fill: none; stroke-width: 1px;"/></g><g id="node-name-Times212" class="node graph-node" transform="translate(60.125,763)" style="opacity: 1;"><g class="node-item node-item-type" transform="translate(0,0)"><path d="M5,0h42.046875a5,5 0 0 1 5,5v11a5,5 0 0 1 -5,5h-42.046875a5,5 0 0 1 -5,-5v-11a5,5 0 0 1 5,-5z" style="stroke: rgb(0, 0, 0); fill: rgb(0, 0, 0); stroke-width: 0;"/><text x="6" y="14" style="font-family: -apple-system, BlinkMacSystemFont, &quot;Segoe WPC&quot;, &quot;Segoe UI&quot;, Ubuntu, &quot;Droid Sans&quot;, sans-serif, &quot;PingFang SC&quot;; font-size: 11px; text-rendering: geometricprecision; fill: rgb(255, 255, 255);">MatMul</text><title>Times212</title></g><path class="node border" d="M5,0h42.046875a5,5 0 0 1 5,5v11a5,5 0 0 1 -5,5h-42.046875a5,5 0 0 1 -5,-5v-11a5,5 0 0 1 5,-5z" style="stroke: rgb(51, 51, 51); fill: none; stroke-width: 1px;"/></g><g id="node-name-Plus214" class="node graph-node" transform="translate(48.6484375,825)" style="opacity: 1;"><g class="node-item node-item-type" transform="translate(0,0)"><path d="M5,0h65a5,5 0 0 1 5,5v16a0,0 0 0 1 0,0h-75a0,0 0 0 1 0,0v-16a5,5 0 0 1 5,-5z" style="stroke: rgb(0, 0, 0); fill: rgb(0, 0, 0); stroke-width: 0;"/><text x="6" y="14" style="font-family: -apple-system, BlinkMacSystemFont, &quot;Segoe WPC&quot;, &quot;Segoe UI&quot;, Ubuntu, &quot;Droid Sans&quot;, sans-serif, &quot;PingFang SC&quot;; font-size: 11px; text-rendering: geometricprecision; fill: rgb(255, 255, 255);">Add</text><title>Plus214</title></g><g class="node-attribute" transform="translate(0,21)"><path d="M0,0h75a0,0 0 0 1 0,0v13a5,5 0 0 1 -5,5h-65a5,5 0 0 1 -5,-5v-13a0,0 0 0 1 0,0z" style="stroke: rgb(0, 0, 0); fill: rgb(255, 255, 255); stroke-width: 0;"/><text id="initializer-Parameter194" xml:space="preserve" x="6" y="11" style="font-family: -apple-system, BlinkMacSystemFont, &quot;Segoe WPC&quot;, &quot;Segoe UI&quot;, Ubuntu, &quot;Droid Sans&quot;, sans-serif, &quot;PingFang SC&quot;; font-size: 9px; font-weight: normal; text-rendering: geometricprecision;"><title>float32[1,10]</title><tspan style="font-weight: bold;">B</tspan><tspan>〈1×10〉</tspan></text><line class="node" x1="0" x2="75" y1="0" y2="0" style="stroke: rgb(51, 51, 51); fill: none; stroke-width: 1px;"/></g><path class="node border" d="M5,0h65a5,5 0 0 1 5,5v29a5,5 0 0 1 -5,5h-65a5,5 0 0 1 -5,-5v-29a5,5 0 0 1 5,-5z" style="stroke: rgb(51, 51, 51); fill: none; stroke-width: 1px;"/></g><g class="node" transform="translate(34.6796875,905)" style="opacity: 1;"><g class="node-item graph-item-output" transform="translate(0,0)"><path d="M5,0h92.9375a5,5 0 0 1 5,5v11a5,5 0 0 1 -5,5h-92.9375a5,5 0 0 1 -5,-5v-11a5,5 0 0 1 5,-5z" style="stroke: rgb(0, 0, 0); fill: rgb(238, 238, 238); stroke-width: 0;"/><text x="6" y="14" style="font-family: -apple-system, BlinkMacSystemFont, &quot;Segoe WPC&quot;, &quot;Segoe UI&quot;, Ubuntu, &quot;Droid Sans&quot;, sans-serif, &quot;PingFang SC&quot;; font-size: 11px; text-rendering: geometricprecision;">Plus214_Output_0</text><title>float32[1,10]</title></g><path class="node border" d="M5,0h92.9375a5,5 0 0 1 5,5v11a5,5 0 0 1 -5,5h-92.9375a5,5 0 0 1 -5,-5v-11a5,5 0 0 1 5,-5z" style="stroke: rgb(51, 51, 51); fill: none; stroke-width: 1px;"/></g></g></g></svg>